<?xml version="1.0" encoding="UTF-8" standalone="no"?>
<!DOCTYPE svg PUBLIC "-//W3C//DTD SVG 1.1//EN" "http://www.w3.org/Graphics/SVG/1.1/DTD/svg11.dtd">
<svg width="100%" height="100%" viewBox="0 0 303 322" version="1.1" xmlns="http://www.w3.org/2000/svg" xmlns:xlink="http://www.w3.org/1999/xlink" xml:space="preserve" xmlns:serif="http://www.serif.com/" style="fill-rule:evenodd;clip-rule:evenodd;stroke-linecap:round;stroke-linejoin:round;stroke-miterlimit:1.5;">
    <g transform="matrix(1,0,0,1,-261.627,-158.805)">
        <g transform="matrix(0.964778,-0.263064,0.263064,0.964778,-175.006,51.3543)">
            <path d="M405.459,452.948C405.762,372.475 411.155,329.313 387.81,285.181C387.155,283.942 386.718,282.744 386.504,281.582C400.248,247.049 580.365,250.543 582.935,283.726C580.098,290.432 577.586,297.214 575.378,304.042C560.738,342.072 558.706,383.587 559.128,418.776L559.05,424.478C559.058,428.495 559.066,432.512 559.074,436.529L559.351,452.077C559.108,452.223 558.863,452.369 558.613,452.516C603.795,439.319 634.497,425.987 634.497,463.447C634.497,519.879 566.366,565.695 482.448,565.695C398.531,565.695 330.4,519.879 330.4,463.447C330.4,425.58 360.379,439.614 405.459,452.948Z" style="fill:rgb(12,10,10);stroke:white;stroke-width:4.5px;"/>
        </g>
        <g transform="matrix(0.649964,-0.177224,0.24075,0.882941,-279.144,89.4171)">
            <path d="M985.883,491.616C928.718,518.237 794.124,532.175 768.736,496.825C768.685,507.749 768.778,519.292 769.077,531.531C784.473,558.864 953.829,547.971 986.851,523.584C986.55,513.481 986.131,502.779 985.883,491.616Z" style="fill:white;stroke:white;stroke-width:6.84px;"/>
        </g>
    </g>
</svg>
